<svg width="56" height="57" viewBox="0 0 56 57" fill="none" xmlns="http://www.w3.org/2000/svg">
<path d="M37.334 42.7041C38.5717 42.7041 39.7586 43.1958 40.6338 44.0709C41.509 44.9461 42.0006 46.1331 42.0006 47.3708C42.0006 48.6084 41.509 49.7954 40.6338 50.6706C39.7586 51.5458 38.5717 52.0374 37.334 52.0374C36.0963 52.0374 34.9093 51.5458 34.0342 50.6706C33.159 49.7954 32.6673 48.6084 32.6673 47.3708C32.6673 46.1331 33.159 44.9461 34.0342 44.0709C34.9093 43.1958 36.0963 42.7041 37.334 42.7041ZM37.334 45.0374C36.7151 45.0374 36.1217 45.2833 35.6841 45.7208C35.2465 46.1584 35.0006 46.7519 35.0006 47.3708C35.0006 47.9896 35.2465 48.5831 35.6841 49.0207C36.1217 49.4583 36.7151 49.7041 37.334 49.7041C37.9528 49.7041 38.5463 49.4583 38.9839 49.0207C39.4215 48.5831 39.6673 47.9896 39.6673 47.3708C39.6673 46.7519 39.4215 46.1584 38.9839 45.7208C38.5463 45.2833 37.9528 45.0374 37.334 45.0374ZM16.334 42.7041C17.5717 42.7041 18.7586 43.1958 19.6338 44.0709C20.509 44.9461 21.0007 46.1331 21.0007 47.3708C21.0007 48.6084 20.509 49.7954 19.6338 50.6706C18.7586 51.5458 17.5717 52.0374 16.334 52.0374C15.0963 52.0374 13.9093 51.5458 13.0342 50.6706C12.159 49.7954 11.6673 48.6084 11.6673 47.3708C11.6673 46.1331 12.159 44.9461 13.0342 44.0709C13.9093 43.1958 15.0963 42.7041 16.334 42.7041ZM16.334 45.0374C15.7151 45.0374 15.1217 45.2833 14.6841 45.7208C14.2465 46.1584 14.0007 46.7519 14.0007 47.3708C14.0007 47.9896 14.2465 48.5831 14.6841 49.0207C15.1217 49.4583 15.7151 49.7041 16.334 49.7041C16.9528 49.7041 17.5463 49.4583 17.9839 49.0207C18.4215 48.5831 18.6673 47.9896 18.6673 47.3708C18.6673 46.7519 18.4215 46.1584 17.9839 45.7208C17.5463 45.2833 16.9528 45.0374 16.334 45.0374ZM42.0006 14.7041H9.96398L15.914 28.7041H35.0006C35.7706 28.7041 36.4473 28.3308 36.8673 27.7708L43.8673 18.4374C44.1706 18.0408 44.334 17.5508 44.334 17.0374C44.334 16.4186 44.0882 15.8251 43.6506 15.3875C43.213 14.9499 42.6195 14.7041 42.0006 14.7041ZM35.0006 31.0374H16.0307L14.234 34.6774L14.0007 35.7041C14.0007 36.3229 14.2465 36.9164 14.6841 37.354C15.1217 37.7916 15.7151 38.0374 16.334 38.0374H42.0006V40.3708H16.334C15.0963 40.3708 13.9093 39.8791 13.0342 39.0039C12.159 38.1288 11.6673 36.9418 11.6673 35.7041C11.6666 34.9124 11.8674 34.1335 12.2507 33.4408L13.9306 30.0108L5.46065 10.0374H2.33398V7.7041H7.00065L8.98398 12.3708H42.0006C43.2383 12.3708 44.4253 12.8624 45.3005 13.7376C46.1757 14.6128 46.6673 15.7998 46.6673 17.0374C46.6673 18.2041 46.2706 19.1841 45.6173 19.9774L38.8273 29.0541C37.9873 30.2441 36.5873 31.0374 35.0006 31.0374Z" fill="white"/>
</svg>
