<svg width="39" height="39" viewBox="0 0 39 39" fill="none" xmlns="http://www.w3.org/2000/svg">
<path d="M32.9062 11.3766H6.09375C5.42065 11.3766 4.875 11.9222 4.875 12.5953C4.875 13.2684 5.42065 13.8141 6.09375 13.8141H32.9062C33.5793 13.8141 34.125 13.2684 34.125 12.5953C34.125 11.9222 33.5793 11.3766 32.9062 11.3766Z" fill="white" fill-opacity="0.96"/>
<path d="M28.0312 18.2828H6.09375C5.42065 18.2828 4.875 18.8285 4.875 19.5016C4.875 20.1747 5.42065 20.7203 6.09375 20.7203H28.0312C28.7043 20.7203 29.25 20.1747 29.25 19.5016C29.25 18.8285 28.7043 18.2828 28.0312 18.2828Z" fill="white" fill-opacity="0.96"/>
<path d="M32.9062 25.1859H6.09375C5.42065 25.1859 4.875 25.7316 4.875 26.4047C4.875 27.0778 5.42065 27.6234 6.09375 27.6234H32.9062C33.5793 27.6234 34.125 27.0778 34.125 26.4047C34.125 25.7316 33.5793 25.1859 32.9062 25.1859Z" fill="white" fill-opacity="0.96"/>
</svg>
