<svg width="39" height="39" viewBox="0 0 39 39" fill="none" xmlns="http://www.w3.org/2000/svg">
<path d="M6.09375 11.3765H32.9062C33.5793 11.3765 34.125 11.9221 34.125 12.5952C34.125 13.2683 33.5793 13.814 32.9062 13.814H6.09375C5.42065 13.814 4.875 13.2683 4.875 12.5952C4.875 11.9221 5.42065 11.3765 6.09375 11.3765Z" fill="black" fill-opacity="0.96"/>
<path d="M10.9688 18.2827H32.9062C33.5793 18.2827 34.125 18.8284 34.125 19.5015C34.125 20.1746 33.5793 20.7202 32.9062 20.7202H10.9688C10.2957 20.7202 9.75 20.1746 9.75 19.5015C9.75 18.8284 10.2957 18.2827 10.9688 18.2827Z" fill="black" fill-opacity="0.96"/>
<path d="M6.09375 25.186H32.9062C33.5793 25.186 34.125 25.7317 34.125 26.4048C34.125 27.0779 33.5793 27.6235 32.9062 27.6235H6.09375C5.42065 27.6235 4.875 27.0779 4.875 26.4048C4.875 25.7317 5.42065 25.186 6.09375 25.186Z" fill="black" fill-opacity="0.96"/>
</svg>
