<svg width="17" height="30" viewBox="0 0 17 30" fill="none" xmlns="http://www.w3.org/2000/svg">
<path d="M8.33642 24.0343C7.81771 24.0343 7.41016 23.6276 7.41016 23.1099V6.47078C7.41016 5.95312 7.81771 5.54639 8.33642 5.54639C8.85513 5.54639 9.26268 5.95312 9.26268 6.47078V23.1099C9.26268 23.6276 8.85513 24.0343 8.33642 24.0343Z" fill="white"/>
<path d="M8.33625 25.8832C8.21477 25.8847 8.09432 25.8608 7.98266 25.813C7.87099 25.7653 7.77057 25.6947 7.68787 25.6059L1.20403 19.1351C0.833521 18.7654 0.833521 18.1922 1.20403 17.8225C1.57453 17.4527 2.14881 17.4527 2.51932 17.8225L8.35477 23.6462L14.1902 17.8225C14.5607 17.4527 15.135 17.4527 15.5055 17.8225C15.876 18.1922 15.876 18.7654 15.5055 19.1351L9.02168 25.6059C8.83643 25.7908 8.5956 25.8832 8.3733 25.8832H8.33625Z" fill="white"/>
</svg>
