<svg width="36" height="37" viewBox="0 0 36 37" fill="none" xmlns="http://www.w3.org/2000/svg">
<path d="M9.625 0.9275C6.4925 2.94 4.375 6.4925 4.375 10.5525C4.375 14.6125 6.4925 18.165 9.6775 20.1775C4.305 20.1775 0 15.8725 0 10.5525C0 7.99979 1.01406 5.55163 2.8191 3.7466C4.62413 1.94156 7.07229 0.9275 9.625 0.9275ZM29.8725 3.5525L32.375 6.055L5.1275 33.3025L2.625 30.8L29.8725 3.5525ZM19.0575 7.805L16.4675 6.1775L13.9475 7.9275L14.6825 4.9525L12.25 3.0975L15.3125 2.8875L16.3275 0L17.5 2.8525L20.5275 2.905L18.165 4.8825L19.0575 7.805ZM13.2825 14.1225L11.2525 12.845L9.2925 14.21L9.8875 11.9L7.98 10.4475L10.36 10.29L11.1475 8.0325L12.04 10.255L14.42 10.3075L12.5825 11.83L13.2825 14.1225ZM29.75 21.0525C29.75 23.6052 28.7359 26.0534 26.9309 27.8584C25.1259 29.6634 22.6777 30.6775 20.125 30.6775C17.99 30.6775 16.0125 29.9775 14.42 28.805L27.8775 15.3475C29.05 16.94 29.75 18.9175 29.75 21.0525ZM22.05 32.5675L26.8975 30.555L26.4775 36.4175L22.05 32.5675ZM29.6275 27.8425L31.64 22.995L35.49 27.44L29.6275 27.8425ZM31.64 19.1625L29.645 14.2975L35.49 14.7175L31.64 19.1625ZM13.3525 30.555L18.2 32.5675L13.7725 36.4L13.3525 30.555Z" fill="black" fill-opacity="0.79"/>
</svg>
