<svg width="36" height="36" viewBox="0 0 36 36" fill="none" xmlns="http://www.w3.org/2000/svg">
<path d="M18.056 28.46C18.4987 28.46 18.872 28.308 19.176 28.004C19.48 27.7 19.632 27.3267 19.632 26.884C19.632 26.4413 19.4787 26.068 19.172 25.764C18.868 25.46 18.4947 25.308 18.052 25.308C17.6093 25.308 17.236 25.4607 16.932 25.766C16.628 26.0713 16.4767 26.4447 16.478 26.886C16.478 27.3287 16.63 27.702 16.934 28.006C17.2407 28.31 17.6147 28.462 18.056 28.462M18.006 36C15.518 36 13.178 35.528 10.986 34.584C8.79533 33.6387 6.88933 32.356 5.268 30.736C3.64667 29.116 2.36333 27.212 1.418 25.024C0.472667 22.836 0 20.4967 0 18.006C0 15.5153 0.472667 13.1753 1.418 10.986C2.362 8.79533 3.64267 6.88933 5.26 5.268C6.87733 3.64667 8.782 2.36333 10.974 1.418C13.166 0.472667 15.506 0 17.994 0C20.482 0 22.822 0.472667 25.014 1.418C27.2047 2.362 29.1107 3.64333 30.732 5.262C32.3533 6.88067 33.6367 8.78533 34.582 10.976C35.5273 13.1667 36 15.506 36 17.994C36 20.482 35.528 22.822 34.584 25.014C33.64 27.206 32.3573 29.112 30.736 30.732C29.1147 32.352 27.2107 33.6353 25.024 34.582C22.8373 35.5287 20.498 36.0013 18.006 36ZM18.124 9.476C19.1373 9.476 20.0093 9.79067 20.74 10.42C21.4733 11.048 21.84 11.8333 21.84 12.776C21.84 13.5093 21.6333 14.1727 21.22 14.766C20.8093 15.358 20.3333 15.904 19.792 16.404C19.1067 17.0253 18.5033 17.7087 17.982 18.454C17.4607 19.2007 17.1613 20.022 17.084 20.918C17.0587 21.1807 17.1407 21.3993 17.33 21.574C17.5167 21.75 17.7367 21.838 17.99 21.838C18.258 21.838 18.484 21.748 18.668 21.568C18.8507 21.3893 18.9667 21.178 19.016 20.934C19.1493 20.2593 19.4173 19.66 19.82 19.136C20.2213 18.612 20.6627 18.1153 21.144 17.646C21.836 16.9593 22.45 16.21 22.986 15.398C23.5233 14.5873 23.792 13.6827 23.792 12.684C23.792 11.2147 23.2347 10.0027 22.12 9.048C21.0067 8.09333 19.7 7.616 18.2 7.616C17.088 7.616 16.0527 7.876 15.094 8.396C14.1367 8.916 13.3707 9.636 12.796 10.556C12.6653 10.7773 12.6233 11.006 12.67 11.242C12.7167 11.478 12.8433 11.6573 13.05 11.78C13.314 11.9187 13.5807 11.9507 13.85 11.876C14.1193 11.8013 14.3567 11.6467 14.562 11.412C15.006 10.86 15.5287 10.4 16.13 10.032C16.73 9.66133 17.3947 9.476 18.124 9.476Z" fill="black" fill-opacity="0.83"/>
</svg>
