<svg width="33" height="33" viewBox="0 0 33 33" fill="none" xmlns="http://www.w3.org/2000/svg">
<path d="M23.9921 25.1426L24.9202 24.2207C29.2144 24.3609 29.2804 24.2104 29.4691 23.769L30.6488 20.897L30.7365 20.6247L30.6406 20.3865C30.59 20.2607 30.4343 19.8853 27.7531 17.3289V15.9841C30.8468 13.0038 30.7808 12.8512 30.6045 12.4149L29.4299 9.51301C29.2535 9.07782 29.1865 8.90767 24.9233 9.0242L23.9952 8.06514C24.0922 6.65245 24.0435 5.23353 23.8498 3.83082L23.7302 3.55961L20.6632 2.21898C20.2115 2.01273 20.0527 1.93848 17.157 5.09204L15.8555 5.07245C12.8742 1.89001 12.7329 1.94776 12.2864 2.12823L9.43498 3.28117C8.98845 3.46164 8.83067 3.52557 9.00392 7.85682L8.08302 8.77464C3.79095 8.63439 3.72495 8.78701 3.5383 9.22632L2.35648 12.0994L2.26367 12.3747L2.36061 12.614C2.41114 12.7377 2.56067 13.109 5.24811 15.6685V17.0092C2.15436 19.9895 2.22139 20.1421 2.39877 20.5794L3.57233 23.4844C3.75177 23.9289 3.8157 24.0866 8.07786 23.9753L9.00598 24.9395C8.90947 26.35 8.95681 27.7667 9.14727 29.1676L9.26689 29.4409L12.3534 30.7898C12.802 30.9774 12.9577 31.0445 15.8452 27.9023L17.1467 27.9188C20.1321 31.1053 20.2848 31.0434 20.721 30.8671L23.5662 29.7173C24.0158 29.5389 24.1726 29.4759 23.9921 25.1426ZM11.7635 18.4148C11.4037 17.4743 11.3296 16.4485 11.5506 15.4661C11.7715 14.4837 12.2777 13.5885 13.0056 12.8927C13.7335 12.1969 14.6507 11.7316 15.642 11.5551C16.6334 11.3787 17.6548 11.4989 18.578 11.9008C19.5013 12.3026 20.2853 12.9682 20.8317 13.814C21.3781 14.6598 21.6626 15.6482 21.6493 16.655C21.6361 17.6619 21.3258 18.6424 20.7574 19.4736C20.189 20.3047 19.3878 20.9495 18.4543 21.327C17.1806 21.8251 15.7615 21.7983 14.5076 21.2525C13.2536 20.7067 12.267 19.6863 11.7635 18.4148Z" fill="white"/>
</svg>
