<svg width="28" height="31" viewBox="0 0 28 31" fill="none" xmlns="http://www.w3.org/2000/svg">
<path d="M26.7934 30.3397L16.0911 18.9112C15.2365 19.6886 14.2538 20.2903 13.1429 20.7162C12.032 21.142 10.9154 21.3549 9.79308 21.3549C7.05626 21.3549 4.73987 20.3432 2.84392 18.3198C0.947975 16.2965 0 13.8235 0 10.901C0 7.97842 0.946835 5.50424 2.84051 3.47842C4.73418 1.4526 7.04942 0.438473 9.78624 0.43604C12.5231 0.433606 14.8406 1.44591 16.7388 3.47295C18.637 5.49998 19.5862 7.97416 19.5862 10.8955C19.5862 12.1633 19.3759 13.3903 18.9555 14.5766C18.5351 15.7629 17.9825 16.7777 17.2977 17.6208L28 29.0476L26.7934 30.3397ZM9.79479 19.528C12.0622 19.528 13.9764 18.6946 15.5373 17.0277C17.0983 15.3608 17.8788 13.3161 17.8788 10.8937C17.8788 8.47119 17.0983 6.42712 15.5373 4.76144C13.9764 3.09577 12.0622 2.26232 9.79479 2.2611C7.5274 2.25989 5.61265 3.09333 4.05054 4.76144C2.48843 6.42955 1.70795 8.47362 1.70909 10.8937C1.71023 13.3137 2.49071 15.3578 4.05054 17.0259C5.61037 18.694 7.52455 19.5274 9.79308 19.5262" fill="black" fill-opacity="0.79"/>
</svg>
