<svg width="32" height="32" viewBox="0 0 32 32" fill="none" xmlns="http://www.w3.org/2000/svg">
<path d="M16.0007 5.33337C17.4151 5.33337 18.7717 5.89528 19.7719 6.89547C20.7721 7.89566 21.334 9.25222 21.334 10.6667C21.334 12.0812 20.7721 13.4377 19.7719 14.4379C18.7717 15.4381 17.4151 16 16.0007 16C14.5862 16 13.2296 15.4381 12.2294 14.4379C11.2292 13.4377 10.6673 12.0812 10.6673 10.6667C10.6673 9.25222 11.2292 7.89566 12.2294 6.89547C13.2296 5.89528 14.5862 5.33337 16.0007 5.33337ZM16.0007 18.6667C21.894 18.6667 26.6673 21.0534 26.6673 24V26.6667H5.33398V24C5.33398 21.0534 10.1073 18.6667 16.0007 18.6667Z" fill="white"/>
</svg>
