<svg width="36" height="36" viewBox="0 0 36 36" fill="none" xmlns="http://www.w3.org/2000/svg">
<path d="M36 32.5203L35.5893 32.1501C34.4243 31.0894 33.4044 29.8733 32.557 28.5347C31.631 26.6873 31.0765 24.6692 30.9262 22.5995V16.5039C30.9342 13.2532 29.7798 10.1114 27.6798 7.66886C25.5799 5.22629 22.679 3.65104 19.5221 3.23907V1.6473C19.5221 1.21041 19.3522 0.791412 19.0498 0.482483C18.7473 0.173555 18.3371 0 17.9094 0C17.4817 0 17.0715 0.173555 16.769 0.482483C16.4666 0.791412 16.2966 1.21041 16.2966 1.6473V3.26375C13.1681 3.70541 10.3022 5.29019 8.2299 7.72455C6.15755 10.1589 5.01914 13.2779 5.0255 16.5039V22.5995C4.87517 24.6692 4.32064 26.6873 3.39463 28.5347C2.56214 29.8702 1.55862 31.0862 0.410738 32.1501L0 32.5203V36H36V32.5203Z" fill="black" fill-opacity="0.78"/>
</svg>
