<svg width="231" height="153" viewBox="0 0 231 153" fill="none" xmlns="http://www.w3.org/2000/svg">
<path d="M165.045 53.9995L167.045 47.9996L168.545 44.4996L173.045 33.9999L177.045 27.9998L181.546 21.4998L185.545 16.9996" stroke="black" stroke-width="4"/>
<path d="M172.914 60.7143L177.707 55.9198L180.842 53.3726L190.248 45.7322L197.076 42.435L205.046 40.0005L209.046 38.9883L212.046 38.9883" stroke="black" stroke-width="4"/>
<path d="M145.045 99.9144L152.358 104.442L157.045 107.5L169.545 116.5L173.771 124.745L178.279 134.159L180.251 138.955L181.545 143" stroke="black" stroke-width="4"/>
<path d="M70.2806 149.604L74.9433 141.489L78.0975 136.269L87.4026 122.251L96.5449 117.368L106.545 111.868L111.545 109.368L115.545 107.368" stroke="black" stroke-width="4"/>
<path d="M131.045 103.065L132.759 110.056L133.88 114.647L136.992 127.483L138.793 135.474L140.802 144.433L141.779 148.828L142.55 152.342" stroke="black" stroke-width="4"/>
<path d="M119.935 106.001L118.189 110.896L117.038 114.108L113.801 123.078L111.67 128.594L109.273 134.774L108.089 137.801L107.134 140.216" stroke="black" stroke-width="4"/>
<g filter="url(#filter0_f_320_192)">
<circle cx="216.545" cy="37.5" r="6.5" fill="#FFFF00"/>
</g>
<g filter="url(#filter1_d_320_192)">
<circle cx="216.545" cy="37.5" r="4.5" fill="#FFFF00" fill-opacity="0.4" shape-rendering="crispEdges"/>
</g>
<g filter="url(#filter2_f_320_192)">
<circle cx="188.545" cy="14.5" r="6.5" fill="#FFFF00"/>
</g>
<g filter="url(#filter3_d_320_192)">
<circle cx="188.545" cy="14.5" r="4.5" fill="#FFFF00" fill-opacity="0.4" shape-rendering="crispEdges"/>
</g>
<g filter="url(#filter4_f_320_192)">
<ellipse cx="122.277" cy="93.1842" rx="33.6218" ry="13.3269" transform="rotate(-20.3432 122.277 93.1842)" fill="black"/>
</g>
<circle cx="157.545" cy="73.5" r="17.5" fill="black"/>
<g filter="url(#filter5_f_320_192)">
<ellipse cx="158.545" cy="72" rx="5.5" ry="7" fill="#FFFF00"/>
</g>
<g filter="url(#filter6_f_320_192)">
<ellipse cx="6.66993" cy="11.2824" rx="6.66993" ry="11.2824" transform="matrix(0.952908 -0.303259 0.224845 0.974395 95.7578 88.0293)" fill="#BDBA1D"/>
</g>
<g filter="url(#filter7_f_320_192)">
<rect width="7.62764" height="15.658" rx="2" transform="matrix(0.936501 -0.350664 0.26512 0.964215 98.9941 91.458)" fill="#FBF7A2"/>
</g>
<g filter="url(#filter8_f_320_192)">
<ellipse cx="7.57606" cy="12.3733" rx="7.57606" ry="12.3733" transform="matrix(0.957564 -0.288219 0.237881 0.971294 80.1992 91.1182)" fill="#BDBA1D"/>
</g>
<g filter="url(#filter9_f_320_192)">
<rect width="8.64972" height="17.1926" rx="3" transform="matrix(0.942428 -0.334409 0.279472 0.960154 83.9121 94.877)" fill="#FBF7A2"/>
</g>
<g filter="url(#filter10_f_320_192)">
<ellipse cx="8.43111" cy="14.4246" rx="8.43111" ry="14.4246" transform="matrix(0.95131 -0.308237 0.220704 0.975341 64.9355 93.8604)" fill="#BDBA1D"/>
</g>
<g filter="url(#filter11_f_320_192)">
<rect width="9.64702" height="20.0113" rx="3" transform="matrix(0.934475 -0.356027 0.260551 0.96546 69.0117 98.2451)" fill="#FBF7A2"/>
</g>
<g filter="url(#filter12_f_320_192)">
<ellipse cx="8.5195" cy="14.8207" rx="8.5195" ry="14.8207" transform="matrix(0.948883 -0.315629 0.214706 0.976679 48.4121 99.7529)" fill="#BDBA1D"/>
</g>
<g filter="url(#filter13_f_320_192)">
<rect width="9.75628" height="20.55" rx="4.87814" transform="matrix(0.931409 -0.363975 0.253923 0.967224 52.5117 104.259)" fill="#FBF7A2"/>
</g>
<g filter="url(#filter14_f_320_192)">
<ellipse cx="8.2932" cy="14.4002" rx="8.2932" ry="14.4002" transform="matrix(0.949158 -0.314799 0.215371 0.976532 31.7383 105.253)" fill="#BDBA1D"/>
</g>
<g filter="url(#filter15_f_320_192)">
<rect width="9.49624" height="19.9682" rx="4.74812" transform="matrix(0.931756 -0.363083 0.254658 0.967031 35.7305 109.631)" fill="#FBF7A2"/>
</g>
<g filter="url(#filter16_f_320_192)">
<ellipse cx="7.31257" cy="11.569" rx="7.31257" ry="11.569" transform="matrix(0.961447 -0.27499 0.250046 0.968234 16.7871 112.757)" fill="#BDBA1D"/>
</g>
<g filter="url(#filter17_f_320_192)">
<rect width="8.33729" height="16.0936" rx="4.16865" transform="matrix(0.947401 -0.32005 0.292822 0.956167 20.4004 116.269)" fill="#FBF7A2"/>
</g>
<path d="M136.241 70.6738C133.039 68.4995 135.039 65.4995 131.039 64.4995C127.539 62.4995 129.479 64.5432 126.539 60.4995C122.539 54.9995 100.539 36.9995 45.5386 36.9995C39.5386 36.9995 26.5386 36.9995 9.03857 44.4995C7.03857 42.9995 1.58159 41.0336 2.3749 37.7898C2.90149 35.6367 4.44764 34.6932 6.97738 33.2439C8.75195 32.2273 10.517 31.3149 12.028 30.7846C14.75 29.8293 15.6525 29.2972 17.0661 28.9465C24.6112 27.0747 29.3591 26.1657 38.6223 26.3807C55.2091 26.7657 62.5624 27.145 77.0239 31.6561C90.9002 35.0498 101.318 42.0784 110.404 48.1862C111.187 48.7123 113.269 50.0006 114.039 50.4995C132.039 61.7237 137.539 68.4995 136.241 70.6738Z" fill="black"/>
<g filter="url(#filter18_f_320_192)">
<path d="M138.995 71.3581C138.367 76.9596 130.608 78.7158 120.805 81.637C108.559 85.2865 92.5985 92.3842 73.05 90.1922C52.7758 90.395 34.9421 84.5152 25.7266 77.5395C15.7859 71.573 11.5522 65.118 12.2429 58.9578C13.1192 51.1434 23.8415 44.7273 40.8948 42.6038C56.2237 40.6949 64.6497 40.7253 78.4713 43.2378C91.6313 44.7134 102.792 49.2634 112.722 52.4368C127.496 60.3665 139.879 63.4698 138.995 71.3581Z" fill="#FFFF00"/>
</g>
<path d="M139.518 68.4996C138.896 74.0411 130.553 75.7035 120.018 78.4996C106.857 81.9927 89.7281 88.8642 68.6404 86.4996C46.7942 86.4996 27.5179 80.4996 17.5179 73.4996C6.74626 67.4919 2.11997 61.0569 2.80333 54.9627C3.67018 47.232 15.0396 40.4998 33.0396 38.4997C42.5396 37.444 59.1201 36.8744 74.0397 39.4996C88.2359 41.0915 101.039 45.4996 111.039 49.4996C127.539 56.9996 140.393 60.6958 139.518 68.4996Z" fill="black"/>
<g filter="url(#filter19_f_320_192)">
<path fill-rule="evenodd" clip-rule="evenodd" d="M105.979 66.3599C106.17 66.7324 105.885 67.1718 105.467 67.1481L99.7555 66.8237L31.1599 59.442C30.6008 59.3819 30.0564 59.2248 29.5511 58.978L29.2534 58.8325C28.8095 58.6157 28.4189 58.3036 28.1093 57.9186L27.518 57.1833C27.4225 57.0645 27.3702 56.9167 27.3698 56.7643C27.3688 56.365 27.7144 56.0531 28.1115 56.0949L96.389 63.2779C98.9554 63.5479 101.468 64.1938 103.847 65.1948L105.736 66.1211C105.84 66.1725 105.926 66.2562 105.979 66.3599Z" fill="#FFFF00"/>
</g>
<g filter="url(#filter20_f_320_192)">
<path fill-rule="evenodd" clip-rule="evenodd" d="M107.127 73.6126C107.348 74.6113 106.638 75.5756 105.619 75.6612L101.754 75.9857L96.6617 76.4948L90.0871 76.8677L83.5447 76.8675L55.5079 76.8675L47.9611 76.4968L41.2669 76.0903C40.3559 76.035 39.7031 75.1885 39.8812 74.2934C40.0282 73.5539 40.6996 73.0372 41.4521 73.0842L48.1283 73.5014L55.5815 73.8675L90.0021 73.8677L96.4274 73.5033L101.335 73.0126L105.175 72.3146C106.069 72.152 106.931 72.7254 107.127 73.6126Z" fill="#FFFF00"/>
</g>
<defs>
<filter id="filter0_f_320_192" x="202.462" y="23.4167" width="28.1667" height="28.1667" filterUnits="userSpaceOnUse" color-interpolation-filters="sRGB">
<feFlood flood-opacity="0" result="BackgroundImageFix"/>
<feBlend mode="normal" in="SourceGraphic" in2="BackgroundImageFix" result="shape"/>
<feGaussianBlur stdDeviation="3.79167" result="effect1_foregroundBlur_320_192"/>
</filter>
<filter id="filter1_d_320_192" x="210.045" y="33" width="13" height="15" filterUnits="userSpaceOnUse" color-interpolation-filters="sRGB">
<feFlood flood-opacity="0" result="BackgroundImageFix"/>
<feColorMatrix in="SourceAlpha" type="matrix" values="0 0 0 0 0 0 0 0 0 0 0 0 0 0 0 0 0 0 127 0" result="hardAlpha"/>
<feOffset dy="4"/>
<feGaussianBlur stdDeviation="1"/>
<feComposite in2="hardAlpha" operator="out"/>
<feColorMatrix type="matrix" values="0 0 0 0 0 0 0 0 0 0 0 0 0 0 0 0 0 0 0.25 0"/>
<feBlend mode="normal" in2="BackgroundImageFix" result="effect1_dropShadow_320_192"/>
<feBlend mode="normal" in="SourceGraphic" in2="effect1_dropShadow_320_192" result="shape"/>
</filter>
<filter id="filter2_f_320_192" x="174.462" y="0.416667" width="28.1667" height="28.1667" filterUnits="userSpaceOnUse" color-interpolation-filters="sRGB">
<feFlood flood-opacity="0" result="BackgroundImageFix"/>
<feBlend mode="normal" in="SourceGraphic" in2="BackgroundImageFix" result="shape"/>
<feGaussianBlur stdDeviation="3.79167" result="effect1_foregroundBlur_320_192"/>
</filter>
<filter id="filter3_d_320_192" x="182.045" y="10" width="13" height="15" filterUnits="userSpaceOnUse" color-interpolation-filters="sRGB">
<feFlood flood-opacity="0" result="BackgroundImageFix"/>
<feColorMatrix in="SourceAlpha" type="matrix" values="0 0 0 0 0 0 0 0 0 0 0 0 0 0 0 0 0 0 127 0" result="hardAlpha"/>
<feOffset dy="4"/>
<feGaussianBlur stdDeviation="1"/>
<feComposite in2="hardAlpha" operator="out"/>
<feColorMatrix type="matrix" values="0 0 0 0 0 0 0 0 0 0 0 0 0 0 0 0 0 0 0.25 0"/>
<feBlend mode="normal" in2="BackgroundImageFix" result="effect1_dropShadow_320_192"/>
<feBlend mode="normal" in="SourceGraphic" in2="effect1_dropShadow_320_192" result="shape"/>
</filter>
<filter id="filter4_f_320_192" x="86.4102" y="72.0742" width="71.7344" height="42.2207" filterUnits="userSpaceOnUse" color-interpolation-filters="sRGB">
<feFlood flood-opacity="0" result="BackgroundImageFix"/>
<feBlend mode="normal" in="SourceGraphic" in2="BackgroundImageFix" result="shape"/>
<feGaussianBlur stdDeviation="2" result="effect1_foregroundBlur_320_192"/>
</filter>
<filter id="filter5_f_320_192" x="151.045" y="63" width="15" height="18" filterUnits="userSpaceOnUse" color-interpolation-filters="sRGB">
<feFlood flood-opacity="0" result="BackgroundImageFix"/>
<feBlend mode="normal" in="SourceGraphic" in2="BackgroundImageFix" result="shape"/>
<feGaussianBlur stdDeviation="1" result="effect1_foregroundBlur_320_192"/>
</filter>
<filter id="filter6_f_320_192" x="91.8047" y="79.8203" width="25.6914" height="34.3594" filterUnits="userSpaceOnUse" color-interpolation-filters="sRGB">
<feFlood flood-opacity="0" result="BackgroundImageFix"/>
<feBlend mode="normal" in="SourceGraphic" in2="BackgroundImageFix" result="shape"/>
<feGaussianBlur stdDeviation="3" result="effect1_foregroundBlur_320_192"/>
</filter>
<filter id="filter7_f_320_192" x="97.4512" y="87.3604" width="14.3809" height="20.6182" filterUnits="userSpaceOnUse" color-interpolation-filters="sRGB">
<feFlood flood-opacity="0" result="BackgroundImageFix"/>
<feBlend mode="normal" in="SourceGraphic" in2="BackgroundImageFix" result="shape"/>
<feGaussianBlur stdDeviation="1" result="effect1_foregroundBlur_320_192"/>
</filter>
<filter id="filter8_f_320_192" x="76.5664" y="82.7354" width="27.6621" height="36.4346" filterUnits="userSpaceOnUse" color-interpolation-filters="sRGB">
<feFlood flood-opacity="0" result="BackgroundImageFix"/>
<feBlend mode="normal" in="SourceGraphic" in2="BackgroundImageFix" result="shape"/>
<feGaussianBlur stdDeviation="3" result="effect1_foregroundBlur_320_192"/>
</filter>
<filter id="filter9_f_320_192" x="82.6289" y="90.8174" width="15.5234" height="21.7344" filterUnits="userSpaceOnUse" color-interpolation-filters="sRGB">
<feFlood flood-opacity="0" result="BackgroundImageFix"/>
<feBlend mode="normal" in="SourceGraphic" in2="BackgroundImageFix" result="shape"/>
<feGaussianBlur stdDeviation="1" result="effect1_foregroundBlur_320_192"/>
</filter>
<filter id="filter10_f_320_192" x="61.5078" y="85.0215" width="29.2637" height="40.6182" filterUnits="userSpaceOnUse" color-interpolation-filters="sRGB">
<feFlood flood-opacity="0" result="BackgroundImageFix"/>
<feBlend mode="normal" in="SourceGraphic" in2="BackgroundImageFix" result="shape"/>
<feGaussianBlur stdDeviation="3" result="effect1_foregroundBlur_320_192"/>
</filter>
<filter id="filter11_f_320_192" x="67.6855" y="93.6875" width="16.8809" height="25.001" filterUnits="userSpaceOnUse" color-interpolation-filters="sRGB">
<feFlood flood-opacity="0" result="BackgroundImageFix"/>
<feBlend mode="normal" in="SourceGraphic" in2="BackgroundImageFix" result="shape"/>
<feGaussianBlur stdDeviation="1" result="effect1_foregroundBlur_320_192"/>
</filter>
<filter id="filter12_f_320_192" x="44.9883" y="90.8135" width="29.3809" height="41.4512" filterUnits="userSpaceOnUse" color-interpolation-filters="sRGB">
<feFlood flood-opacity="0" result="BackgroundImageFix"/>
<feBlend mode="normal" in="SourceGraphic" in2="BackgroundImageFix" result="shape"/>
<feGaussianBlur stdDeviation="3" result="effect1_foregroundBlur_320_192"/>
</filter>
<filter id="filter13_f_320_192" x="51.584" y="100.159" width="16.1621" height="24.5254" filterUnits="userSpaceOnUse" color-interpolation-filters="sRGB">
<feFlood flood-opacity="0" result="BackgroundImageFix"/>
<feBlend mode="normal" in="SourceGraphic" in2="BackgroundImageFix" result="shape"/>
<feGaussianBlur stdDeviation="1" result="effect1_foregroundBlur_320_192"/>
</filter>
<filter id="filter14_f_320_192" x="28.248" y="96.3994" width="28.9258" height="40.6104" filterUnits="userSpaceOnUse" color-interpolation-filters="sRGB">
<feFlood flood-opacity="0" result="BackgroundImageFix"/>
<feBlend mode="normal" in="SourceGraphic" in2="BackgroundImageFix" result="shape"/>
<feGaussianBlur stdDeviation="3" result="effect1_foregroundBlur_320_192"/>
</filter>
<filter id="filter15_f_320_192" x="34.7754" y="105.593" width="15.8418" height="23.9385" filterUnits="userSpaceOnUse" color-interpolation-filters="sRGB">
<feFlood flood-opacity="0" result="BackgroundImageFix"/>
<feBlend mode="normal" in="SourceGraphic" in2="BackgroundImageFix" result="shape"/>
<feGaussianBlur stdDeviation="1" result="effect1_foregroundBlur_320_192"/>
</filter>
<filter id="filter16_f_320_192" x="13.1055" y="104.564" width="27.209" height="34.7656" filterUnits="userSpaceOnUse" color-interpolation-filters="sRGB">
<feFlood flood-opacity="0" result="BackgroundImageFix"/>
<feBlend mode="normal" in="SourceGraphic" in2="BackgroundImageFix" result="shape"/>
<feGaussianBlur stdDeviation="3" result="effect1_foregroundBlur_320_192"/>
</filter>
<filter id="filter17_f_320_192" x="19.4355" y="112.716" width="14.541" height="19.8252" filterUnits="userSpaceOnUse" color-interpolation-filters="sRGB">
<feFlood flood-opacity="0" result="BackgroundImageFix"/>
<feBlend mode="normal" in="SourceGraphic" in2="BackgroundImageFix" result="shape"/>
<feGaussianBlur stdDeviation="1" result="effect1_foregroundBlur_320_192"/>
</filter>
<filter id="filter18_f_320_192" x="10.1699" y="39.2529" width="130.869" height="53.3516" filterUnits="userSpaceOnUse" color-interpolation-filters="sRGB">
<feFlood flood-opacity="0" result="BackgroundImageFix"/>
<feBlend mode="normal" in="SourceGraphic" in2="BackgroundImageFix" result="shape"/>
<feGaussianBlur stdDeviation="1" result="effect1_foregroundBlur_320_192"/>
</filter>
<filter id="filter19_f_320_192" x="26.1191" y="54.8408" width="81.1699" height="13.5586" filterUnits="userSpaceOnUse" color-interpolation-filters="sRGB">
<feFlood flood-opacity="0" result="BackgroundImageFix"/>
<feBlend mode="normal" in="SourceGraphic" in2="BackgroundImageFix" result="shape"/>
<feGaussianBlur stdDeviation="0.625" result="effect1_foregroundBlur_320_192"/>
</filter>
<filter id="filter20_f_320_192" x="38.6016" y="71.0371" width="69.8164" height="7.08105" filterUnits="userSpaceOnUse" color-interpolation-filters="sRGB">
<feFlood flood-opacity="0" result="BackgroundImageFix"/>
<feBlend mode="normal" in="SourceGraphic" in2="BackgroundImageFix" result="shape"/>
<feGaussianBlur stdDeviation="0.625" result="effect1_foregroundBlur_320_192"/>
</filter>
</defs>
</svg>
